<svg width="30" height="30" viewBox="0 0 30 30" fill="none" xmlns="http://www.w3.org/2000/svg">
<g clip-path="url(#clip0_18_345)">
<path d="M29.6702 14.1374C29.5578 14.0119 27.8678 12.1522 25.291 10.7374C26.1126 7.91488 25.9926 5.40485 25.9833 5.23674C25.9469 4.57862 25.4214 4.05309 24.7633 4.01682C24.7437 4.01571 24.5636 4.00628 24.2614 4.00628C23.415 4.00628 21.4352 4.0862 19.2667 4.71649C17.8515 2.13544 15.9882 0.44232 15.8626 0.32982C15.3717 -0.109866 14.6285 -0.109866 14.1374 0.32982C14.0118 0.44232 12.1486 2.1355 10.7332 4.71643C8.56473 4.08614 6.58509 4.00622 5.73859 4.00622C5.43607 4.00622 5.25607 4.01559 5.23662 4.01677C4.57843 4.05304 4.05302 4.57862 4.0167 5.23669C4.0075 5.40491 3.88744 7.91488 4.70904 10.7373C2.13221 12.1522 0.442133 14.0119 0.329809 14.1374C-0.109936 14.6284 -0.109936 15.3715 0.329809 15.8626C0.442133 15.9881 2.13221 17.8478 4.70898 19.2627C3.88738 22.0852 4.00732 24.5952 4.01664 24.7633C4.05302 25.4214 4.57855 25.947 5.23656 25.9832C5.25613 25.9843 5.43613 25.9938 5.73841 25.9938C6.5848 25.9938 8.56462 25.9139 10.7332 25.2836C12.1486 27.8645 14.0118 29.5577 14.1374 29.6702C14.3829 29.89 14.6915 29.9999 15 29.9999C15.3086 29.9999 15.6171 29.89 15.8626 29.6702C15.9883 29.5577 17.8514 27.8645 19.2667 25.2836C21.4353 25.9139 23.415 25.9938 24.2615 25.9938C24.2616 25.9938 24.2617 25.9938 24.2617 25.9938C24.5641 25.9938 24.7439 25.9845 24.7634 25.9833C25.4215 25.947 25.9469 25.4214 25.9833 24.7634C25.9925 24.5952 26.1125 22.0852 25.2909 19.2627C27.8677 17.8479 29.5578 15.9881 29.6701 15.8627C30.1099 15.3715 30.1099 14.6284 29.6702 14.1374ZM23.3808 6.61996C23.3337 7.41619 23.21 8.51793 22.9011 9.69109C22.2278 9.47136 21.5206 9.30373 20.7865 9.21338C20.6962 8.48002 20.529 7.77332 20.3095 7.10072C21.4822 6.792 22.5841 6.6676 23.3808 6.61996ZM14.9999 3.15251C15.5292 3.75099 16.2198 4.61946 16.8305 5.66682C16.1994 5.98622 15.5814 6.36514 15 6.81778C14.4185 6.36508 13.8005 5.98622 13.1693 5.66682C13.7801 4.61923 14.4708 3.75081 14.9999 3.15251ZM9.69043 7.10072C9.471 7.77332 9.30372 8.47996 9.21342 9.21338C8.48135 9.30344 7.77606 9.47037 7.10446 9.68927C6.79638 8.51758 6.6711 7.41625 6.6223 6.6202C7.41888 6.66795 8.51938 6.79246 9.69043 7.10072ZM5.66183 16.8277C4.61646 16.2177 3.7498 15.5283 3.15256 15C3.75015 14.4716 4.61675 13.7822 5.66183 13.1724C5.98193 13.802 6.36261 14.4186 6.81659 15C6.36267 15.5813 5.98193 16.1981 5.66183 16.8277ZM6.62247 23.3797C6.67116 22.5833 6.79661 21.4822 7.10458 20.3107C7.77612 20.5296 8.48141 20.6964 9.21354 20.7866C9.30377 21.5199 9.47112 22.2265 9.69055 22.8992C8.51938 23.2075 7.41899 23.332 6.62247 23.3797ZM15 26.8474C14.4706 26.2488 13.78 25.3804 13.1695 24.3332C13.8005 24.0138 14.4186 23.6349 15 23.1822C15.5813 23.6348 16.1994 24.0137 16.8304 24.3331C16.22 25.3805 15.5293 26.2488 15 26.8474ZM18.2757 19.569C18.2757 20.4018 18.1274 21.211 17.8883 21.9765C17.1796 21.604 16.5036 21.1364 15.9144 20.5471C15.4095 20.0421 14.5907 20.0421 14.0857 20.5471C13.4963 21.1364 12.8204 21.604 12.1116 21.9765C11.8725 21.211 11.7242 20.4018 11.7242 19.569C11.7242 18.8548 11.1453 18.2758 10.4311 18.2758C9.59885 18.2758 8.79032 18.1278 8.02538 17.889C8.39745 17.1792 8.86444 16.5028 9.45301 15.9144C9.69553 15.6719 9.83182 15.343 9.83182 15C9.83182 14.657 9.69559 14.3281 9.45301 14.0856C8.86462 13.4971 8.39757 12.8208 8.02538 12.111C8.79032 11.8722 9.59885 11.7242 10.4311 11.7242C11.1452 11.7242 11.7242 11.1452 11.7242 10.431C11.7242 9.59816 11.8725 8.78887 12.1116 8.02346C12.8203 8.396 13.4964 8.86357 14.0856 9.45291C14.3281 9.69543 14.657 9.83171 15 9.83171C15.3429 9.83171 15.6718 9.69549 15.9143 9.45291C16.5036 8.86357 17.1796 8.396 17.8883 8.02346C18.1273 8.78898 18.2756 9.59816 18.2756 10.431C18.2756 11.1452 18.8546 11.7242 19.5688 11.7242C20.402 11.7242 21.2116 11.8726 21.9773 12.1118C21.6046 12.8199 21.1366 13.4958 20.5469 14.0855C20.3043 14.3281 20.1681 14.6569 20.1681 14.9999C20.1681 15.3429 20.3043 15.6718 20.5469 15.9143C21.1354 16.5028 21.6023 17.1792 21.9744 17.8889C21.2095 18.1278 20.4008 18.2758 19.5687 18.2758C18.8547 18.2758 18.2757 18.8547 18.2757 19.569ZM20.3094 22.8991C20.5289 22.2266 20.6961 21.52 20.7864 20.7866C21.5185 20.6964 22.2239 20.5296 22.8954 20.3107C23.2035 21.4824 23.3288 22.5837 23.3776 23.3797C22.5812 23.332 21.4806 23.2075 20.3094 22.8991ZM24.3382 16.8276C24.0181 16.198 23.6374 15.5812 23.1834 14.9999C23.6374 14.4185 24.0181 13.8018 24.3382 13.1723C25.3835 13.7823 26.2502 14.4716 26.8475 14.9999C26.2499 15.5283 25.3833 16.2177 24.3382 16.8276Z" fill="#B0A271"/>
<path d="M15.9139 14.0853C15.6734 13.8447 15.3406 13.7069 15.0001 13.7069C14.6595 13.7069 14.3267 13.8448 14.0854 14.0853C13.8448 14.3259 13.7069 14.6595 13.7069 15C13.7069 15.3406 13.8448 15.6733 14.0854 15.9147C14.3268 16.1553 14.6595 16.2932 15.0001 16.2932C15.3405 16.2932 15.6734 16.1553 15.9139 15.9147C16.1553 15.6733 16.2932 15.3406 16.2932 15C16.2932 14.6595 16.1552 14.3259 15.9139 14.0853Z" fill="#B0A271"/>
</g>
<defs>
<clipPath id="clip0_18_345">
<rect width="30" height="30" fill="white"/>
</clipPath>
</defs>
</svg>
