<svg width="28" height="28" viewBox="0 0 28 28" fill="none" xmlns="http://www.w3.org/2000/svg">
<path fill-rule="evenodd" clip-rule="evenodd" d="M12.2501 2.33334C10.6687 2.33348 9.11039 2.71177 7.70502 3.43665C6.29964 4.16154 5.08799 5.212 4.17116 6.50039C3.25433 7.78878 2.6589 9.27775 2.43454 10.8431C2.21019 12.4084 2.36343 14.0046 2.88146 15.4987C3.39949 16.9927 4.26731 18.3412 5.41249 19.4317C6.55768 20.5221 7.94704 21.3229 9.46465 21.7672C10.9823 22.2115 12.5841 22.2864 14.1366 21.9857C15.689 21.6851 17.1471 21.0175 18.3891 20.0387L22.6497 24.2993C22.8698 24.5119 23.1645 24.6295 23.4704 24.6268C23.7762 24.6241 24.0689 24.5014 24.2852 24.2851C24.5015 24.0688 24.6242 23.7762 24.6268 23.4703C24.6295 23.1644 24.5119 22.8697 24.2994 22.6497L20.0387 18.389C21.1914 16.9267 21.9091 15.1695 22.1097 13.3184C22.3103 11.4672 21.9856 9.59703 21.173 7.92179C20.3603 6.24654 19.0924 4.83393 17.5144 3.84561C15.9364 2.8573 14.112 2.33322 12.2501 2.33334ZM4.66672 12.25C4.66672 10.2388 5.46567 8.30993 6.88783 6.88778C8.30998 5.46563 10.2388 4.66668 12.2501 4.66668C14.2613 4.66668 16.1901 5.46563 17.6123 6.88778C19.0344 8.30993 19.8334 10.2388 19.8334 12.25C19.8334 14.2612 19.0344 16.1901 17.6123 17.6122C16.1901 19.0344 14.2613 19.8333 12.2501 19.8333C10.2388 19.8333 8.30998 19.0344 6.88783 17.6122C5.46567 16.1901 4.66672 14.2612 4.66672 12.25Z" fill="#F7F6E1"/>
</svg>
